# xmcd CD database file
#
# Track frame offsets:
#	150
#	11847
#	23960
#	39992
#	55147
#	70165
#	82632
#	94732
#	111502
#	121560
#	133402
#	151340
#	161770
#
# Disc length: 2343 seconds
#
# Revision: 0
# Processed by: cddbd v1.4PL0 Copyright (c) Steve Scherf et al.
# Submitted via: CdAid 2001.05.15.01
#
DISCID=a109250d
DTITLE=Buttercup - Love
DYEAR=1900
DGENRE=
TTITLE0=The Hideout
TTITLE1=Deal With The Devil
TTITLE2=A Fire
TTITLE3=Backed Into It
TTITLE4=Half An Answer
TTITLE5=Time Bomb
TTITLE6=I Got Friends
TTITLE7=Seaside Weekend
TTITLE8=Only One
TTITLE9=Starts On A
TTITLE10=Warm And Kind
TTITLE11=It's So Hard
TTITLE12=On The Ground
EXTD=
EXTT0=
EXTT1=
EXTT2=
EXTT3=
EXTT4=
EXTT5=
EXTT6=
EXTT7=
EXTT8=
EXTT9=
EXTT10=
EXTT11=
EXTT12=
PLAYORDER=
